<svg xmlns="http://www.w3.org/2000/svg" viewBox="0 0 96 96" fill="none" stroke="#e11d48" stroke-width="8" stroke-linecap="round"><line x1="48" y1="48" x2="80" y2="48"/><line x1="48" y1="48" x2="70.63" y2="70.63"/><line x1="48" y1="48" x2="48" y2="80"/><line x1="48" y1="48" x2="25.37" y2="70.63"/><line x1="48" y1="48" x2="16" y2="48"/><line x1="48" y1="48" x2="25.37" y2="25.37"/><line x1="48" y1="48" x2="48" y2="16"/><line x1="48" y1="48" x2="70.63" y2="25.37"/><line x1="48" y1="48" x2="72.02" y2="57.95"/><line x1="48" y1="48" x2="57.95" y2="72.02"/><line x1="48" y1="48" x2="38.05" y2="72.02"/><line x1="48" y1="48" x2="23.98" y2="57.95"/><line x1="48" y1="48" x2="23.98" y2="38.05"/><line x1="48" y1="48" x2="38.05" y2="23.98"/><line x1="48" y1="48" x2="57.95" y2="23.98"/><line x1="48" y1="48" x2="72.02" y2="38.05"/></svg>
