<svg xmlns="http://www.w3.org/2000/svg" width="1024" height="1024" viewBox="0 0 1024 1024">
<defs><linearGradient id="bg" x1="0" y1="0" x2="0" y2="1"><stop offset="0%" stop-color="#F43F5E"/><stop offset="100%" stop-color="#BE123C"/></linearGradient></defs>
<rect width="1024" height="1024" rx="228" fill="url(#bg)"/>
<g stroke="#ffffff" stroke-width="52" stroke-linecap="round" fill="none"><line x1="512" y1="512" x2="812.0" y2="512.0"/><line x1="512" y1="512" x2="736.5" y2="605.0"/><line x1="512" y1="512" x2="724.1" y2="724.1"/><line x1="512" y1="512" x2="605.0" y2="736.5"/><line x1="512" y1="512" x2="512.0" y2="812.0"/><line x1="512" y1="512" x2="419.0" y2="736.5"/><line x1="512" y1="512" x2="299.9" y2="724.1"/><line x1="512" y1="512" x2="287.5" y2="605.0"/><line x1="512" y1="512" x2="212.0" y2="512.0"/><line x1="512" y1="512" x2="287.5" y2="419.0"/><line x1="512" y1="512" x2="299.9" y2="299.9"/><line x1="512" y1="512" x2="419.0" y2="287.5"/><line x1="512" y1="512" x2="512.0" y2="212.0"/><line x1="512" y1="512" x2="605.0" y2="287.5"/><line x1="512" y1="512" x2="724.1" y2="299.9"/><line x1="512" y1="512" x2="736.5" y2="419.0"/></g>
<circle cx="512" cy="512" r="110" fill="#881337"/>
</svg>