<svg xmlns="http://www.w3.org/2000/svg" width="1024" height="1024" viewBox="0 0 1024 1024"><defs><linearGradient id="g" x1="0" y1="0" x2="0" y2="1"><stop offset="0" stop-color="#F43F5E"/><stop offset="1" stop-color="#BE123C"/></linearGradient></defs><rect width="1024" height="1024" rx="228" fill="url(#g)"/><g transform="scale(8.533333)"><circle cx="60" cy="60" r="42" fill="none" stroke="#ffffff" stroke-width="8"/><g transform="translate(60 60) scale(1.0) translate(-61 -65)"><g transform="translate(60 106) rotate(-30)"><path fill="#ffffff" d="M -7 0 C -6.4 -25.2, -2.9 -48, 0 -60 C 2.9 -48, 6.4 -25.2, 7 0 Z"/></g><g transform="translate(60 106) rotate(-6)"><path fill="#ffffff" d="M -8 0 C -7.4 -34.4, -3.4 -65.6, 0 -82 C 3.4 -65.6, 7.4 -34.4, 8 0 Z"/></g><g transform="translate(60 106) rotate(15)"><path fill="#ffffff" d="M -7.4 0 C -6.8 -30.2, -3.1 -57.6, 0 -72 C 3.1 -57.6, 6.8 -30.2, 7.4 0 Z"/></g><g transform="translate(60 106) rotate(39)"><path fill="#ffffff" d="M -6 0 C -5.5 -21.8, -2.5 -41.6, 0 -52 C 2.5 -41.6, 5.5 -21.8, 6 0 Z"/></g></g></g></svg>